<?xml version="1.0" encoding="UTF-8" standalone="no"?>
<!DOCTYPE svg PUBLIC "-//W3C//DTD SVG 1.1//EN"
 "http://www.w3.org/Graphics/SVG/1.1/DTD/svg11.dtd">
<!-- Generated by graphviz version 2.38.0 (20140413.2041)
 -->
<!-- Title: G Pages: 1 -->
<svg width="307pt" height="538pt"
 viewBox="0.00 0.00 307.00 538.00" xmlns="http://www.w3.org/2000/svg" xmlns:xlink="http://www.w3.org/1999/xlink">
<g id="graph0" class="graph" transform="scale(1 1) rotate(0) translate(4 534)">
<title>G</title>
<polygon fill="white" stroke="none" points="-4,4 -4,-534 303,-534 303,4 -4,4"/>
<g id="clust1" class="cluster"><title>cluster_Global</title>
<path fill="none" stroke="gray" d="M20,-8C20,-8 279,-8 279,-8 285,-8 291,-14 291,-20 291,-20 291,-510 291,-510 291,-516 285,-522 279,-522 279,-522 20,-522 20,-522 14,-522 8,-516 8,-510 8,-510 8,-20 8,-20 8,-14 14,-8 20,-8"/>
<text text-anchor="middle" x="149.5" y="-509.2" font-family="Times New Roman,serif" font-size="11.00" fill="gray">Global</text>
</g>
<g id="clust5" class="cluster"><title>cluster_\Classes</title>
<path fill="none" stroke="gray" d="M28,-16C28,-16 271,-16 271,-16 277,-16 283,-22 283,-28 283,-28 283,-482 283,-482 283,-488 277,-494 271,-494 271,-494 28,-494 28,-494 22,-494 16,-488 16,-482 16,-482 16,-28 16,-28 16,-22 22,-16 28,-16"/>
<text text-anchor="middle" x="149.5" y="-481.2" font-family="Times New Roman,serif" font-size="11.00" fill="gray">Classes</text>
</g>
<g id="clust6" class="cluster"><title>cluster_\Classes\Models</title>
<path fill="none" stroke="gray" d="M36,-124C36,-124 263,-124 263,-124 269,-124 275,-130 275,-136 275,-136 275,-454 275,-454 275,-460 269,-466 263,-466 263,-466 36,-466 36,-466 30,-466 24,-460 24,-454 24,-454 24,-136 24,-136 24,-130 30,-124 36,-124"/>
<text text-anchor="middle" x="149.5" y="-453.2" font-family="Times New Roman,serif" font-size="11.00" fill="gray">Models</text>
</g>
<g id="clust7" class="cluster"><title>cluster_\Classes\Models\AbstractModels</title>
<path fill="none" stroke="gray" d="M44,-259C44,-259 120,-259 120,-259 126,-259 132,-265 132,-271 132,-271 132,-319 132,-319 132,-325 126,-331 120,-331 120,-331 44,-331 44,-331 38,-331 32,-325 32,-319 32,-319 32,-271 32,-271 32,-265 38,-259 44,-259"/>
<text text-anchor="middle" x="82" y="-318.2" font-family="Times New Roman,serif" font-size="11.00" fill="gray">AbstractModels</text>
</g>
<!-- \\Classes\\Models\\AbstractModels\\DbModel -->
<g id="node1" class="node"><title>\\Classes\\Models\\AbstractModels\\DbModel</title>
<polygon fill="none" stroke="black" points="124,-303 40,-303 40,-267 124,-267 124,-303"/>
<text text-anchor="start" x="48" y="-288.2" font-family="Courier,monospace" font-size="11.00">«abstract»</text>
<text text-anchor="start" x="58" y="-276.2" font-family="Courier,monospace" font-size="11.00">DbModel</text>
</g>
<!-- \\Classes\\Models\\Category -->
<g id="node2" class="node"><title>\\Classes\\Models\\Category</title>
<polygon fill="none" stroke="black" points="267,-438 196,-438 196,-402 267,-402 267,-438"/>
<text text-anchor="middle" x="231.5" y="-417.2" font-family="Courier,monospace" font-size="11.00">Category</text>
</g>
<!-- \\Classes\\Models\\Category&#45;&gt;\\Classes\\Models\\AbstractModels\\DbModel -->
<g id="edge1" class="edge"><title>\\Classes\\Models\\Category&#45;&gt;\\Classes\\Models\\AbstractModels\\DbModel</title>
<path fill="none" stroke="black" d="M206.496,-401.711C202.931,-398.852 199.336,-395.887 196,-393 164.66,-365.876 130.493,-332.674 108.028,-310.302"/>
<polygon fill="none" stroke="black" points="110.426,-307.75 100.879,-303.154 105.477,-312.7 110.426,-307.75"/>
</g>
<!-- \\Classes\\Models\\Order -->
<g id="node3" class="node"><title>\\Classes\\Models\\Order</title>
<polygon fill="none" stroke="black" points="258.5,-384 204.5,-384 204.5,-348 258.5,-348 258.5,-384"/>
<text text-anchor="middle" x="231.5" y="-363.2" font-family="Courier,monospace" font-size="11.00">Order</text>
</g>
<!-- \\Classes\\Models\\Order&#45;&gt;\\Classes\\Models\\AbstractModels\\DbModel -->
<g id="edge2" class="edge"><title>\\Classes\\Models\\Order&#45;&gt;\\Classes\\Models\\AbstractModels\\DbModel</title>
<path fill="none" stroke="black" d="M204.469,-351.705C182.423,-339.598 150.407,-322.016 124.778,-307.942"/>
<polygon fill="none" stroke="black" points="126.456,-304.871 116.006,-303.125 123.086,-311.007 126.456,-304.871"/>
</g>
<!-- \\Classes\\Models\\Plant -->
<g id="node4" class="node"><title>\\Classes\\Models\\Plant</title>
<polygon fill="none" stroke="black" points="258.5,-330 204.5,-330 204.5,-294 258.5,-294 258.5,-330"/>
<text text-anchor="middle" x="231.5" y="-309.2" font-family="Courier,monospace" font-size="11.00">Plant</text>
</g>
<!-- \\Classes\\Models\\Plant&#45;&gt;\\Classes\\Models\\AbstractModels\\DbModel -->
<g id="edge3" class="edge"><title>\\Classes\\Models\\Plant&#45;&gt;\\Classes\\Models\\AbstractModels\\DbModel</title>
<path fill="none" stroke="black" d="M204.469,-307.235C185.003,-303.672 157.763,-298.686 134.012,-294.338"/>
<polygon fill="none" stroke="black" points="134.545,-290.877 124.079,-292.519 133.285,-297.763 134.545,-290.877"/>
</g>
<!-- \\Classes\\Models\\Sale -->
<g id="node5" class="node"><title>\\Classes\\Models\\Sale</title>
<polygon fill="none" stroke="black" points="258.5,-276 204.5,-276 204.5,-240 258.5,-240 258.5,-276"/>
<text text-anchor="middle" x="231.5" y="-255.2" font-family="Courier,monospace" font-size="11.00">Sale</text>
</g>
<!-- \\Classes\\Models\\Sale&#45;&gt;\\Classes\\Models\\AbstractModels\\DbModel -->
<g id="edge4" class="edge"><title>\\Classes\\Models\\Sale&#45;&gt;\\Classes\\Models\\AbstractModels\\DbModel</title>
<path fill="none" stroke="black" d="M204.469,-262.765C185.003,-266.328 157.763,-271.314 134.012,-275.662"/>
<polygon fill="none" stroke="black" points="133.285,-272.237 124.079,-277.481 134.545,-279.123 133.285,-272.237"/>
</g>
<!-- \\Classes\\Models\\Session -->
<g id="node6" class="node"><title>\\Classes\\Models\\Session</title>
<polygon fill="none" stroke="black" points="263.5,-222 199.5,-222 199.5,-186 263.5,-186 263.5,-222"/>
<text text-anchor="middle" x="231.5" y="-201.2" font-family="Courier,monospace" font-size="11.00">Session</text>
</g>
<!-- \\Classes\\Models\\Session&#45;&gt;\\Classes\\Models\\AbstractModels\\DbModel -->
<g id="edge5" class="edge"><title>\\Classes\\Models\\Session&#45;&gt;\\Classes\\Models\\AbstractModels\\DbModel</title>
<path fill="none" stroke="black" d="M199.219,-221.178C177.548,-233.079 148.456,-249.055 124.801,-262.045"/>
<polygon fill="none" stroke="black" points="123.108,-258.982 116.027,-266.863 126.477,-265.117 123.108,-258.982"/>
</g>
<!-- \\Classes\\Models\\User -->
<g id="node7" class="node"><title>\\Classes\\Models\\User</title>
<polygon fill="none" stroke="black" points="258.5,-168 204.5,-168 204.5,-132 258.5,-132 258.5,-168"/>
<text text-anchor="middle" x="231.5" y="-147.2" font-family="Courier,monospace" font-size="11.00">User</text>
</g>
<!-- \\Classes\\Models\\User&#45;&gt;\\Classes\\Models\\AbstractModels\\DbModel -->
<g id="edge6" class="edge"><title>\\Classes\\Models\\User&#45;&gt;\\Classes\\Models\\AbstractModels\\DbModel</title>
<path fill="none" stroke="black" d="M206.496,-168.289C202.931,-171.148 199.336,-174.113 196,-177 164.66,-204.124 130.493,-237.326 108.028,-259.698"/>
<polygon fill="none" stroke="black" points="105.477,-257.3 100.879,-266.846 110.426,-262.25 105.477,-257.3"/>
</g>
<!-- \\Classes\\Config -->
<g id="node8" class="node"><title>\\Classes\\Config</title>
<polygon fill="none" stroke="black" points="260,-114 203,-114 203,-78 260,-78 260,-114"/>
<text text-anchor="middle" x="231.5" y="-93.2" font-family="Courier,monospace" font-size="11.00">Config</text>
</g>
<!-- \\Classes\\DB -->
<g id="node9" class="node"><title>\\Classes\\DB</title>
<polygon fill="none" stroke="black" points="258.5,-60 204.5,-60 204.5,-24 258.5,-24 258.5,-60"/>
<text text-anchor="middle" x="231.5" y="-39.2" font-family="Courier,monospace" font-size="11.00">DB</text>
</g>
</g>
</svg>
